<?xml version="1.0" encoding="UTF-8"?>
<svg version="1.1" xmlns="http://www.w3.org/2000/svg" width="1280" height="377">
<path d="M0 0 C422.4 0 844.8 0 1280 0 C1280 124.41 1280 248.82 1280 377 C857.6 377 435.2 377 0 377 C0 252.59 0 128.18 0 0 Z " fill="#FEFEFE" transform="translate(0,0)"/>
<path d="M0 0 C19.81703174 -0.71284287 36.40539892 3.43577496 52.078125 16.078125 C52.84898437 16.68398438 53.61984375 17.28984375 54.4140625 17.9140625 C64.11240885 25.97900315 70.76799936 36.39181169 77.2265625 47.0703125 C84.4552188 58.81306641 93.07795381 65.68639093 106.54296875 69.42578125 C124.7382252 72.78335896 140.04167843 67.26283511 155.640625 58.203125 C157.66379603 57.04510724 159.68724361 55.88757255 161.7109375 54.73046875 C162.75282227 54.13218262 163.79470703 53.53389648 164.86816406 52.91748047 C221.43877609 20.50167647 221.43877609 20.50167647 239.1640625 24.83203125 C253.72497879 29.91837872 262.75117943 41.31020175 272.078125 53.078125 C273.06005354 54.29389391 274.04319033 55.50868766 275.02734375 56.72265625 C292.078125 77.8011811 292.078125 77.8011811 292.078125 81.078125 C291.0571875 81.63757813 290.03625 82.19703125 288.984375 82.7734375 C279.08010297 88.22566035 269.28100634 93.84069296 259.52490234 99.5534668 C248.84397702 105.80761716 238.12087224 111.98750981 227.39550781 118.16503906 C224.02458192 120.10900251 220.65646586 122.05775434 217.2890625 124.0078125 C211.86986683 127.14526221 206.44552724 130.27356725 201.01513672 133.39160156 C199.13289403 134.47244383 197.25161837 135.55497295 195.37158203 136.63964844 C180.56134896 145.16528539 167.39610971 152.32832464 149.80859375 148.3359375 C135.53519204 143.21023361 127.69031765 131.59989512 119.8984375 119.40234375 C107.96746272 100.81024509 90.04634739 85.24244491 68.078125 80.078125 C51.69997976 77.05149528 33.88995272 77.90201951 18.078125 83.078125 C16.20640625 83.66207031 16.20640625 83.66207031 14.296875 84.2578125 C-2.5344436 89.86896866 -18.1567784 99.24643071 -33.3125 108.33203125 C-38.99499084 111.73568584 -44.74245813 115.02608163 -50.484375 118.328125 C-58.0477994 122.68184244 -65.60126102 127.05121012 -73.13232422 131.46069336 C-78.05658299 134.34280217 -82.9882838 137.21202795 -87.921875 140.078125 C-88.95634766 140.68027832 -89.99082031 141.28243164 -91.05664062 141.90283203 C-94.1523037 143.69971244 -97.2547376 145.48430447 -100.359375 147.265625 C-101.28838623 147.80654785 -102.21739746 148.3474707 -103.17456055 148.90478516 C-114.30658227 155.25290646 -124.21190287 157.97479032 -137.1015625 155.45703125 C-152.95940673 150.8232456 -161.0511598 139.69456965 -169.44140625 126.38793945 C-182.9695288 105.18719316 -200.4834571 92.21922228 -224.921875 86.078125 C-225.5403833 85.9023291 -226.1588916 85.7265332 -226.79614258 85.54541016 C-240.64534839 82.50103438 -256.58805244 84.75557093 -269.921875 89.078125 C-270.66711426 89.31418457 -271.41235352 89.55024414 -272.18017578 89.79345703 C-289.34805845 95.35124998 -304.74627498 104.05935979 -320.1796875 113.265625 C-325.87297079 116.65653175 -331.61690544 119.95893022 -337.359375 123.265625 C-338.46104004 123.90040771 -339.56270508 124.53519043 -340.69775391 125.18920898 C-342.96373615 126.49469362 -345.22985088 127.79994832 -347.49609375 129.10498047 C-352.01545776 131.707995 -356.53345764 134.31336817 -361.05078125 136.91992188 C-363.24279533 138.18414723 -365.43549559 139.44718362 -367.62890625 140.70898438 C-372.56713782 143.55193454 -377.49477943 146.40878579 -382.390625 149.32421875 C-398.63344745 158.96634746 -414.00261469 164.87961195 -433.20703125 161.5 C-449.82433315 156.57966835 -462.34269883 144.35104964 -472.66796875 130.96484375 C-474.4996674 128.61887269 -476.36619515 126.32243845 -478.26953125 124.03515625 C-478.86072754 123.32125732 -479.45192383 122.6073584 -480.06103516 121.87182617 C-481.24215376 120.44746063 -482.42789481 119.02691306 -483.61865234 117.6105957 C-484.43197021 116.62385864 -484.43197021 116.62385864 -485.26171875 115.6171875 C-485.75019287 115.03146973 -486.23866699 114.44575195 -486.74194336 113.84228516 C-488.02255104 111.92760046 -488.49966296 110.32848122 -488.921875 108.078125 C-488.29023438 107.72733887 -487.65859375 107.37655273 -487.0078125 107.01513672 C-475.24759489 100.47626933 -463.5253398 93.89196749 -451.921875 87.078125 C-442.77277169 81.70610554 -433.54784302 76.48735938 -424.27734375 71.328125 C-417.10833805 67.32848048 -410.00094737 63.23464456 -402.921875 59.078125 C-393.77959196 53.71017899 -384.56346778 48.4917738 -375.29711914 43.34130859 C-367.92228146 39.23078116 -360.63208614 34.99121498 -353.359375 30.703125 C-326.56299861 14.98419461 -296.63431892 0.4450975 -264.62890625 8.1796875 C-241.90153896 14.79881228 -226.10668518 31.8893032 -213.95654297 51.42236328 C-205.30783537 65.26274434 -196.06121121 73.13873864 -179.921875 77.078125 C-164.43283134 78.48770993 -152.34991311 74.6406711 -138.921875 67.078125 C-137.02233772 66.02567646 -135.12259655 64.97359582 -133.22265625 63.921875 C-121.6788456 57.48571581 -110.20373805 50.9476879 -98.80395508 44.25976562 C-91.10803806 39.75090662 -83.35989162 35.34227864 -75.5769043 30.9855957 C-70.60043348 28.19109301 -65.66660024 25.34325234 -60.77734375 22.3984375 C-49.14952162 15.41219666 -37.85662569 9.25204894 -24.921875 5.078125 C-23.94371826 4.75811523 -23.94371826 4.75811523 -22.94580078 4.43164062 C-15.25487368 1.95962654 -8.04456218 0.32701472 0 0 Z " fill="#FCBB0F" transform="translate(984.921875,2.921875)"/>
<path d="M0 0 C13.2 0 26.4 0 40 0 C40.33 73.92 40.66 147.84 41 224 C29.12 224 17.24 224 5 224 C4.5625 214.8125 4.5625 214.8125 4.43188477 211.94458008 C4.22762466 207.87621964 3.97875439 203.97259135 3 200 C2.68289063 200.54527344 2.36578125 201.09054687 2.0390625 201.65234375 C-6.23869533 215.02938334 -18.85561011 223.13457477 -34 227 C-52.51117265 230.57233156 -70.13318498 227.05990873 -86 217 C-103.13799675 204.56608788 -113.01024678 184.7293442 -116.59423828 164.19165039 C-117.37401147 158.05809151 -117.32758875 151.92431562 -117.3125 145.75 C-117.32861328 144.44675781 -117.34472656 143.14351562 -117.36132812 141.80078125 C-117.37298902 118.26910359 -109.7775142 96.83458057 -93 80 C-92.32453125 79.30132812 -91.6490625 78.60265625 -90.953125 77.8828125 C-86.59667863 73.67376469 -81.91112534 70.57678588 -76.625 67.6875 C-75.74303955 67.19902588 -75.74303955 67.19902588 -74.84326172 66.70068359 C-65.80672229 61.99777011 -56.66757612 60.47705862 -46.5625 60.625 C-45.55405029 60.63515137 -44.54560059 60.64530273 -43.5065918 60.65576172 C-36.32808281 60.8053744 -29.73997773 61.35825016 -23 64 C-22.00097656 64.39058594 -21.00195312 64.78117187 -19.97265625 65.18359375 C-11.4610764 68.97248112 -8.06060652 72.93939348 -1 80 C-0.67 53.6 -0.34 27.2 0 0 Z " fill="#013D79" transform="translate(702,146)"/>
<path d="M0 0 C0.86753906 0.4125 1.73507813 0.825 2.62890625 1.25 C12.09474283 6.33698393 18.81544421 14.17539075 23 24 C25.95110344 21.13832394 28.67367899 18.21577005 31.3125 15.0625 C40.43324036 4.63321659 53.59178413 -3.00768972 67.49243164 -4.21679688 C84.51525538 -5.00953836 98.45147265 -2.60015817 111.4765625 9.25390625 C124.76685576 23.09981377 129.18038425 41.23253088 129.11352539 59.89233398 C129.11367142 60.96624893 129.11381744 62.04016388 129.1139679 63.1466217 C129.11327382 66.67979993 129.1055051 70.21292478 129.09765625 73.74609375 C129.09579028 76.20231599 129.09436722 78.65853861 129.09336853 81.11476135 C129.08955749 87.56734247 129.07973927 94.01990095 129.06866455 100.47247314 C129.05842004 107.06172377 129.0538644 113.65097807 129.04882812 120.24023438 C129.03811573 133.16016778 129.02053037 146.08007846 129 159 C116.13 159 103.26 159 90 159 C89.97812622 154.55031738 89.97812622 154.55031738 89.95581055 150.01074219 C89.90532464 140.17592605 89.83870514 130.34126591 89.76428509 120.50660324 C89.71968345 114.54771037 89.68040496 108.58888426 89.65356445 102.62988281 C89.62742954 96.8720247 89.58695551 91.11442492 89.53681374 85.3567276 C89.52021372 83.16730224 89.50865693 80.97783227 89.50238609 78.78835297 C89.7523892 55.90862926 89.7523892 55.90862926 79.33203125 36.18359375 C72.58712553 30.00448586 65.6285713 29.48022947 56.69921875 29.62890625 C49.44860303 30.35626474 45.0689904 33.6021513 40.1875 38.8125 C35.17812129 44.96090217 31.90950459 51.41859935 31.84178162 59.42926025 C31.8319928 60.30983093 31.82220398 61.19040161 31.81211853 62.09765625 C31.80636307 63.05575195 31.8006076 64.01384766 31.79467773 65.00097656 C31.78477814 66.01593201 31.77487854 67.03088745 31.76467896 68.07659912 C31.73309254 71.43125069 31.70831772 74.78591641 31.68359375 78.140625 C31.66302176 80.46661751 31.64202523 82.79260631 31.62062073 85.11859131 C31.56542537 91.24073271 31.51600484 97.36290772 31.46777344 103.48510742 C31.41753995 109.73228953 31.36186352 115.97942285 31.30664062 122.2265625 C31.19909002 134.48433487 31.09814107 146.74214868 31 159 C18.13 159 5.26 159 -8 159 C-8.01458252 156.07431152 -8.02916504 153.14862305 -8.04418945 150.13427734 C-8.09472654 140.42320729 -8.16135449 130.71229437 -8.23571491 121.00137901 C-8.28027364 115.11877206 -8.31956118 109.23623206 -8.34643555 103.35351562 C-8.37261379 97.6669699 -8.41311725 91.98068384 -8.46318626 86.29430008 C-8.47975733 84.13443885 -8.49133192 81.97453282 -8.49761391 79.81461716 C-8.1348748 56.49020242 -8.1348748 56.49020242 -18 36 C-25.90217602 29.53458326 -34.1463183 29.2499283 -44 30 C-47.06904791 30.89340309 -49.41410833 32.14462273 -52 34 C-52.86625 34.556875 -53.7325 35.11375 -54.625 35.6875 C-62.84104642 43.68733467 -66.27524037 53.44180101 -66.4367218 64.78071594 C-66.43528671 65.70788925 -66.43385162 66.63506256 -66.43237305 67.59033203 C-66.4425647 68.59641006 -66.45275635 69.6024881 -66.46325684 70.63905334 C-66.49319024 73.92869783 -66.50262269 77.21805019 -66.51171875 80.5078125 C-66.52857999 82.80281527 -66.54673217 85.0978089 -66.56611633 87.39279175 C-66.61346525 93.40634297 -66.64337232 99.41985706 -66.66955566 105.43353271 C-66.69943754 111.58076303 -66.74594161 117.72786563 -66.79101562 123.875 C-66.87687694 135.91661427 -66.94276057 147.95821563 -67 160 C-80.2 160 -93.4 160 -107 160 C-107.33 106.87 -107.66 53.74 -108 -1 C-96.45 -1 -84.9 -1 -73 -1 C-72.3423757 4.91861866 -71.88459515 10.19006177 -71.9375 16.0625 C-71.94652344 17.37347656 -71.95554688 18.68445313 -71.96484375 20.03515625 C-71.97644531 21.01355469 -71.98804688 21.99195313 -72 23 C-71.34 23 -70.68 23 -70 23 C-69.79375 22.319375 -69.5875 21.63875 -69.375 20.9375 C-64.62290284 10.78529244 -53.55448364 2.71873096 -43.27685547 -1.21704102 C-29.71229507 -5.88158586 -13.02854085 -6.26937304 0 0 Z " fill="#013E79" transform="translate(111,211)"/>
<path d="M0 0 C1.10279297 -0.01224609 2.20558594 -0.02449219 3.34179688 -0.03710938 C21.50043501 -0.06924856 37.43169541 4.65350999 51.05078125 16.98828125 C66.10316276 32.57467186 67.66003337 54.11203298 67.63671875 74.49609375 C67.64920567 76.51759528 67.66355117 78.53908608 67.67964172 80.56056213 C67.71736312 85.84256263 67.73279567 91.12437683 67.74243164 96.40649414 C67.76229289 104.85265028 67.81967623 113.29866711 67.87119484 121.74467659 C67.88627679 124.66064383 67.89368109 127.57653951 67.89933777 130.49253845 C67.90636931 132.31981433 67.91347137 134.14708994 67.9206543 135.97436523 C67.91986122 137.14940865 67.91986122 137.14940865 67.91905212 138.34819031 C67.96168652 146.67432457 68.57089111 154.83014886 69.0625 163.1875 C57.1825 163.1875 45.3025 163.1875 33.0625 163.1875 C30.8125 155.3125 30.8125 155.3125 30.9375 150.75 C30.95554687 149.88503906 30.97359375 149.02007812 30.9921875 148.12890625 C31.01539063 147.48824219 31.03859375 146.84757813 31.0625 146.1875 C30.60101563 146.61160156 30.13953125 147.03570312 29.6640625 147.47265625 C14.8791062 160.76742921 -0.03536345 167.62903238 -20.1171875 167.39453125 C-34.67151433 166.60579984 -47.11686828 162.26356493 -57.19140625 151.4140625 C-64.99874435 141.45839647 -68.52059094 130.29046374 -68.375 117.75 C-68.36742676 116.82985107 -68.35985352 115.90970215 -68.35205078 114.96166992 C-68.18461751 108.05718628 -67.23675153 102.33517366 -63.9375 96.1875 C-63.50179688 95.3315625 -63.06609375 94.475625 -62.6171875 93.59375 C-53.95164236 77.87265172 -38.25023272 69.10250126 -21.45776367 64.16333008 C-5.94124764 59.86627839 10.00651057 58.70177259 26.0625 59.1875 C25.75329133 49.91123996 24.89182544 42.63357031 18.0625 35.9375 C8.87095961 28.82522985 -2.74955356 27.88528502 -13.9375 29.1875 C-26.290202 31.10277088 -37.93385313 34.14587502 -48.9375 40.1875 C-49.60533866 38.18398403 -50.27253927 36.18025423 -50.9375 34.17578125 C-51.69941164 31.89897499 -52.47117453 29.62648354 -53.25 27.35546875 C-53.70834222 26.00781552 -54.16667554 24.66015927 -54.625 23.3125 C-54.96470825 22.33108032 -54.96470825 22.33108032 -55.3112793 21.32983398 C-56.27624661 18.47924741 -56.9375 16.22058875 -56.9375 13.1875 C-38.10495197 4.19328464 -20.88092015 0.01216128 0 0 Z " fill="#013E79" transform="translate(326.9375,206.8125)"/>
<path d="M0 0 C12.42836197 11.020049 18.81675552 28.36348438 20.09516907 44.61058426 C20.42725843 52.17698647 20.33508666 59.74517161 20.265625 67.31640625 C20.25814754 69.73591134 20.25246174 72.15542256 20.24847412 74.57493591 C20.23333634 80.8861518 20.19415881 87.19698862 20.1496582 93.50805664 C20.10844736 99.97081375 20.0904084 106.43363322 20.0703125 112.89648438 C20.02765129 125.53534802 19.9574006 138.17383291 19.875 150.8125 C6.675 150.8125 -6.525 150.8125 -20.125 150.8125 C-20.1343457 147.89204834 -20.14369141 144.97159668 -20.15332031 141.96264648 C-20.18723806 132.26353549 -20.2428685 122.56463396 -20.30890274 112.86569118 C-20.34824479 106.99093522 -20.38049809 101.11632617 -20.39599609 95.24145508 C-20.41125041 89.56133404 -20.44585023 83.8816173 -20.49330902 78.20167732 C-20.50803283 76.04543657 -20.51603578 73.88913807 -20.51688385 71.73284721 C-20.38572624 48.17368246 -20.38572624 48.17368246 -31.125 27.8125 C-37.1026324 23.05479258 -42.36473598 21.43982847 -49.9375 21.5 C-50.65019043 21.50418945 -51.36288086 21.50837891 -52.09716797 21.51269531 C-60.63877522 21.69646988 -67.47524125 24.25573642 -73.6875 30.34375 C-78.96438273 36.14832101 -83.21627263 43.15467039 -83.28321838 51.1594696 C-83.29790161 52.49088486 -83.29790161 52.49088486 -83.31288147 53.84919739 C-83.31863693 54.82023911 -83.3243924 55.79128082 -83.33032227 56.79174805 C-83.34022186 57.81631104 -83.35012146 58.84087402 -83.36032104 59.89648438 C-83.39195337 63.28903885 -83.41670041 66.68160734 -83.44140625 70.07421875 C-83.46197427 72.42406075 -83.4829707 74.77389903 -83.50437927 77.12373352 C-83.55961557 83.31329342 -83.60901802 89.50288679 -83.65722656 95.69250488 C-83.70743018 102.00662216 -83.7631222 108.32069073 -83.81835938 114.63476562 C-83.92596003 127.02730372 -84.02689375 139.4198831 -84.125 151.8125 C-97.655 151.8125 -111.185 151.8125 -125.125 151.8125 C-125.455 98.6825 -125.785 45.5525 -126.125 -9.1875 C-114.245 -9.1875 -102.365 -9.1875 -90.125 -9.1875 C-89.63 2.6925 -89.63 2.6925 -89.125 14.8125 C-88.465 14.8125 -87.805 14.8125 -87.125 14.8125 C-86.78082031 13.74128906 -86.78082031 13.74128906 -86.4296875 12.6484375 C-81.14354619 1.15820219 -67.57531952 -6.36259261 -56.3125 -10.625 C-35.99063783 -16.28766606 -16.88727001 -11.821089 0 0 Z " fill="#013E79" transform="translate(547.125,219.1875)"/>
<path d="M0 0 C11.88 0 23.76 0 36 0 C36 10.23 36 20.46 36 31 C36.66 31 37.32 31 38 31 C38.20625 30.21625 38.4125 29.4325 38.625 28.625 C43.41405866 15.99929989 50.97393336 9.16374229 62.875 3.26171875 C72.88342358 -0.77918227 79.5822368 0 91 0 C91 11.55 91 23.1 91 35 C85.92625 35.061875 85.92625 35.061875 80.75 35.125 C69.0646554 35.53113384 61.03073737 37.54759567 52.5625 46.125 C44.84972495 55.62135428 42.87610815 66.2602795 42.79467773 78.12646484 C42.78477814 79.02466949 42.77487854 79.92287415 42.76467896 80.84829712 C42.73321687 83.80248422 42.70836725 86.75668738 42.68359375 89.7109375 C42.66301101 91.76502895 42.64201419 93.81911629 42.62062073 95.87319946 C42.56553642 101.26866315 42.51606718 106.66416421 42.46777344 112.05969238 C42.40860583 118.53926156 42.34245317 125.01876276 42.27747345 131.49827576 C42.17963566 141.33214217 42.09066212 151.16605302 42 161 C28.47 161 14.94 161 1 161 C0.67 107.87 0.34 54.74 0 0 Z " fill="#04407B" transform="translate(839,210)"/>
<path d="M0 0 C13.53 0 27.06 0 41 0 C41 53.13 41 106.26 41 161 C27.47 161 13.94 161 0 161 C0 107.87 0 54.74 0 0 Z " fill="#033F7A" transform="translate(949,210)"/>
<path d="M0 0 C13.53 0 27.06 0 41 0 C41 52.8 41 105.6 41 160 C27.47 160 13.94 160 0 160 C0 107.2 0 54.4 0 0 Z " fill="#013E79" transform="translate(771,210)"/>
<path d="M0 0 C8.98263443 5.25214144 15.70237684 13.12485966 19 23 C20.19477921 27.66475232 20.19587309 32.25078143 20.23828125 37.03515625 C20.246353 37.90965927 20.25442474 38.78416229 20.26274109 39.68516541 C20.27654346 41.53512616 20.28728274 43.38511197 20.29516602 45.23510742 C20.30664564 47.10758037 20.32703325 48.98002164 20.35668945 50.85229492 C20.60674473 66.66165537 19.41485241 78.92300412 8.22265625 90.90234375 C0.12785365 98.73228573 -8.93071479 100.60537952 -19.86083984 100.47290039 C-25.71942356 100.2301632 -30.11704211 99.2088009 -35 96 C-36.04027344 95.34644531 -36.04027344 95.34644531 -37.1015625 94.6796875 C-47.22749839 87.7394393 -52.35360589 77.21142703 -55.3125 65.5 C-58.44768887 46.77930494 -56.32647607 26.50967489 -45.40625 10.69140625 C-34.54621914 -2.85801904 -15.85298449 -7.3316595 0 0 Z " fill="#FDFEFE" transform="translate(682,241)"/>
<path d="M0 0 C0.11742499 4.29143157 0.18765996 8.58244273 0.25 12.875 C0.30027344 14.68097656 0.30027344 14.68097656 0.3515625 16.5234375 C0.46344303 26.81644665 -1.64666172 36.36599995 -9 44 C-17.2307488 50.80280213 -25.49552303 53.59642553 -36.1328125 53.28515625 C-41.56677719 52.74472107 -45.45684606 51.26258049 -49.75 47.75 C-55.67003183 40.51440554 -56.67858872 36.06086801 -56.37109375 26.59375 C-55.53844988 18.53025151 -51.82792225 13.95962632 -45.68359375 8.82421875 C-31.92669638 -0.52726752 -15.9038674 -0.29665245 0 0 Z " fill="#FBFCFD" transform="translate(355,292)"/>
</svg>
